<svg xmlns="http://www.w3.org/2000/svg" version="1.1" xmlns:xlink="http://www.w3.org/1999/xlink" xmlns:svgjs="http://svgjs.dev/svgjs" width="1440" height="560" preserveAspectRatio="none" viewBox="0 0 1440 560"><g mask="url(&quot;#SvgjsMask1018&quot;)" fill="none"><rect width="1440" height="560" x="0" y="0" fill="rgba(15, 23, 42, 1)"></rect><path d="M760.32 614.41C851.46 584.51 789.68 337.39 1005.44 319.22 1221.2 301.05 1366.58 158.92 1495.67 156.82" stroke="rgba(245, 158, 11, 0.58)" stroke-width="2"></path><path d="M788.4 637.97C900.39 562.86 836.43 164.21 1036.31 158.93 1236.2 153.65 1399.89 340.76 1532.14 343.73" stroke="rgba(245, 158, 11, 0.58)" stroke-width="2"></path><path d="M635.82 656.14C746.9 638.95 719.69 372.76 984.43 372.24 1249.18 371.72 1504.89 489.43 1681.66 489.84" stroke="rgba(245, 158, 11, 0.58)" stroke-width="2"></path><path d="M286.64 602.09C463.68 581.44 571.89 187.91 866.38 187.09 1160.87 186.27 1292.24 391.21 1446.12 394.29" stroke="rgba(245, 158, 11, 0.58)" stroke-width="2"></path><path d="M175.06 666.59C344.12 608.23 369.1 124.93 624 109.59 878.9 94.25 848.46 179.59 1072.93 179.59 1297.4 179.59 1408.28 109.8 1521.87 109.59" stroke="rgba(245, 158, 11, 0.58)" stroke-width="2"></path></g><defs><mask id="SvgjsMask1018"><rect width="1440" height="560" fill="#ffffff"></rect></mask></defs></svg>