<svg xmlns="http://www.w3.org/2000/svg" version="1.1" xmlns:xlink="http://www.w3.org/1999/xlink" xmlns:svgjs="http://svgjs.dev/svgjs" width="371" height="300" preserveAspectRatio="none" viewBox="0 0 371 300"><g mask="url(&quot;#SvgjsMask2233&quot;)" fill="none"><path d="M185.5 290.18C221.45 289.48 250.99 266.29 277.28 241.78 304.87 216.04 332.83 187.62 335.83 150 338.99 110 321.48 70.78 293.12 42.38 264.77 13.95 225.65-0.7 185.5-0.57 145.48-0.44 104.74 12.81 78.62 43.12 53.92 71.81 53.63 112.2 55.77 150 57.75 185.07 66.22 219.63 90.09 245.41 114.88 272.21 148.98 290.89 185.5 290.18" fill="rgba(15, 23, 42, 1)"></path><path d="M185.5 213.72C201.84 213.4 215.27 202.86 227.22 191.72 239.76 180.02 252.47 167.1 253.83 150 255.27 131.82 247.31 113.99 234.42 101.08 221.53 88.16 203.75 81.5 185.5 81.56 167.31 81.62 148.79 87.64 136.92 101.42 125.69 114.46 125.56 132.82 126.53 150 127.43 165.94 131.28 181.65 142.13 193.37 153.4 205.55 168.9 214.04 185.5 213.72" fill="rgba(245, 158, 11, 1)"></path></g><defs><mask id="SvgjsMask2233"><rect width="371" height="300" fill="#ffffff"></rect></mask></defs></svg>